<svg width="10" height="10" viewBox="0 0 10 10" fill="none" xmlns="http://www.w3.org/2000/svg">
<path d="M7.1875 0.625L7.68531 1.5625L8.75 1.69188L7.96875 2.39594L8.125 3.4375L7.1875 2.85156L6.25 3.4375L6.40625 2.39594L5.625 1.69188L6.71875 1.5625L7.1875 0.625Z" fill="#848484"/>
<path d="M7.09907 4.14034L6.49344 3.98471C6.38488 4.40291 6.15481 4.77955 5.83229 5.06705C5.50977 5.35456 5.10927 5.54002 4.6814 5.60001C4.25352 5.66 3.81746 5.59182 3.42832 5.4041C3.03917 5.21638 2.71439 4.91753 2.49501 4.54531C2.27563 4.17309 2.17149 3.74419 2.19576 3.31282C2.22002 2.88144 2.37159 2.46693 2.63133 2.12165C2.89106 1.77638 3.2473 1.51583 3.65505 1.37293C4.06279 1.23003 4.50374 1.21118 4.92219 1.31877L5.07813 0.713462C4.46812 0.55479 3.82248 0.605862 3.24501 0.858465C2.66753 1.11107 2.19178 1.55053 1.89424 2.10618C1.59671 2.66184 1.49467 3.30141 1.60454 3.92207C1.71441 4.54272 2.0298 5.1084 2.5 5.52815V9.37503L4.375 8.12503L6.25 9.37503V5.53377C6.66505 5.16386 6.96061 4.67879 7.09907 4.14034ZM5.625 8.20721L4.375 7.37378L3.125 8.20721V5.95315C3.51283 6.14798 3.94077 6.2496 4.37478 6.24992C4.80879 6.25025 5.23689 6.14927 5.625 5.95502V8.20721Z" fill="#848484"/>
</svg>
