<svg width="10" height="10" viewBox="0 0 10 10" fill="none" xmlns="http://www.w3.org/2000/svg">
<g clip-path="url(#clip0_8_442)">
<path d="M4.41666 6.91667L7.35416 3.97917L6.77083 3.39583L4.41666 5.75L3.22916 4.5625L2.64583 5.14583L4.41666 6.91667ZM4.99999 9.16667C4.42361 9.16667 3.88194 9.05722 3.375 8.83833C2.86805 8.61972 2.42708 8.32292 2.05208 7.94792C1.67708 7.57292 1.38027 7.13194 1.16166 6.625C0.942773 6.11805 0.833328 5.57639 0.833328 5C0.833328 4.42361 0.942773 3.88194 1.16166 3.375C1.38027 2.86805 1.67708 2.42708 2.05208 2.05208C2.42708 1.67708 2.86805 1.38014 3.375 1.16125C3.88194 0.942638 4.42361 0.833332 4.99999 0.833332C5.57638 0.833332 6.11805 0.942638 6.62499 1.16125C7.13194 1.38014 7.57291 1.67708 7.94791 2.05208C8.32291 2.42708 8.61972 2.86805 8.83833 3.375C9.05722 3.88194 9.16666 4.42361 9.16666 5C9.16666 5.57639 9.05722 6.11805 8.83833 6.625C8.61972 7.13194 8.32291 7.57292 7.94791 7.94792C7.57291 8.32292 7.13194 8.61972 6.62499 8.83833C6.11805 9.05722 5.57638 9.16667 4.99999 9.16667ZM4.99999 8.33333C5.93055 8.33333 6.71874 8.01041 7.36458 7.36458C8.01041 6.71875 8.33333 5.93055 8.33333 5C8.33333 4.06944 8.01041 3.28125 7.36458 2.63542C6.71874 1.98958 5.93055 1.66667 4.99999 1.66667C4.06944 1.66667 3.28124 1.98958 2.63541 2.63542C1.98958 3.28125 1.66666 4.06944 1.66666 5C1.66666 5.93055 1.98958 6.71875 2.63541 7.36458C3.28124 8.01041 4.06944 8.33333 4.99999 8.33333Z" fill="white"/>
</g>
<defs>
<clipPath id="clip0_8_442">
<rect width="10" height="10" fill="white"/>
</clipPath>
</defs>
</svg>
