<svg width="513" height="399" viewBox="0 0 513 399" fill="none" xmlns="http://www.w3.org/2000/svg">
<g clip-path="url(#clip0_12_727)">
<path d="M311.066 120.235C311.705 120.265 312.336 120.094 312.876 119.745C313.416 119.396 313.838 118.885 314.084 118.283C314.331 117.681 314.39 117.016 314.254 116.378C314.118 115.74 313.794 115.161 313.325 114.718C313.246 114.399 313.19 114.169 313.111 113.85C313.139 113.781 313.167 113.712 313.196 113.642C316.065 106.654 325.788 106.702 328.632 113.701C331.157 119.913 334.371 126.135 335.162 132.703C335.511 135.606 335.364 138.549 334.728 141.401C340.657 128.187 343.737 113.825 343.756 99.2881C343.758 95.6403 343.559 91.9954 343.162 88.3703C342.834 85.3984 342.379 82.4477 341.796 79.5182C338.618 63.6229 331.794 48.7245 321.886 36.0465C317.09 33.3732 313.211 29.2624 310.773 24.2679C309.889 22.4726 309.265 20.5561 308.919 18.578C309.46 18.6505 310.959 10.2333 310.551 9.71686C311.305 8.54811 312.654 7.96713 313.478 6.82665C317.573 1.15462 323.215 2.14499 326.16 9.85283C332.452 13.097 332.513 18.4772 328.653 23.6518C326.196 26.9439 325.859 31.3984 323.704 34.9229C323.925 35.2128 324.156 35.4937 324.378 35.7837C328.431 41.108 331.963 46.8253 334.925 52.8536C334.087 46.1677 335.324 38.1128 337.433 32.9206C339.833 27.0046 344.333 22.0222 348.295 16.9078C353.054 10.7647 362.814 13.4456 363.652 21.233C363.66 21.3084 363.668 21.3838 363.676 21.4592C363.087 21.7983 362.511 22.1583 361.948 22.5392C361.24 23.0225 360.691 23.7131 360.373 24.5204C360.056 25.3278 359.985 26.2142 360.169 27.0636C360.353 27.913 360.784 28.6858 361.406 29.2806C362.027 29.8755 362.81 30.2647 363.652 30.3973L363.738 30.4108C363.528 32.5777 363.158 34.7252 362.629 36.8347C367.712 56.9167 356.738 64.2309 341.069 64.5595C340.723 64.7407 340.386 64.9219 340.04 65.0941C343.016 73.708 344.882 82.6805 345.592 91.786C345.994 97.158 345.971 102.554 345.521 107.923L345.548 107.732C346.683 101.763 349.8 96.377 354.372 92.4836C361.163 86.7846 370.758 84.686 378.084 80.1051C381.611 77.9 386.13 80.7496 385.515 84.9266C385.505 84.9933 385.495 85.06 385.485 85.1266C384.392 85.581 383.329 86.1045 382.301 86.694C381.712 87.0333 381.136 87.3933 380.572 87.7741C379.864 88.2574 379.316 88.948 378.998 89.7553C378.681 90.5627 378.61 91.4491 378.794 92.2985C378.978 93.1479 379.409 93.9207 380.031 94.5156C380.652 95.1104 381.435 95.4996 382.277 95.6322L382.363 95.6457C382.425 95.6548 382.478 95.6639 382.54 95.673C380.674 100.225 378.055 104.414 374.798 108.058C371.619 125.589 357.968 127.253 343.366 122.147H343.357C341.755 129.26 339.434 136.183 336.431 142.805H311.686C311.598 142.524 311.518 142.234 311.438 141.953C313.728 142.101 316.028 141.961 318.285 141.537C316.449 139.235 314.613 136.916 312.777 134.615C312.736 134.571 312.698 134.526 312.662 134.479C311.731 133.301 310.791 132.132 309.859 130.954L309.859 130.953C309.809 127.342 310.215 123.74 311.065 120.236L311.066 120.235Z" fill="#F2F2F2"/>
<path d="M390.512 55.542C385.911 38.4054 423.02 23.7104 432.765 37.5105C434.12 35.5486 439.128 34.3568 441.425 34.9587C443.723 35.5605 445.655 37.0652 447.54 38.5217C450.133 40.5559 452.819 42.6624 454.41 45.5874C456.012 48.5003 456.259 52.4726 454.103 55.0004C452.395 57.0105 447.352 58.3105 444.783 58.8402C442.992 59.2133 441.484 59.5142 440.188 59.7309C439.011 57.9981 438.468 55.8972 438.656 53.7966C437.784 54.3978 437.052 55.1888 436.515 56.1128C435.977 57.0368 435.646 58.071 435.546 59.1411C435.51 59.5865 450.026 114.15 450.026 114.15C448.282 115.164 446.448 116.007 444.548 116.666C440.788 110.797 437.909 104.386 436.005 97.6475C435.568 102.154 435.623 106.696 436.17 111.189C436.461 113.709 436.878 116.212 437.419 118.688C420.169 122.492 394.224 121.24 382.936 105.062C382.934 104.995 382.932 104.928 382.93 104.861C382.922 104.223 382.696 103.607 382.292 103.12C381.887 102.633 381.33 102.305 380.715 102.191C380.1 102.078 379.465 102.186 378.919 102.498C378.374 102.81 377.952 103.306 377.725 103.901C377.451 104.615 377.199 105.233 376.974 105.724C373.687 93.7114 377.94 79.8086 390.512 55.542Z" fill="#2F2E41"/>
<path d="M361.159 342.844V343.405C361.137 343.218 361.137 343.03 361.159 342.844Z" fill="#2F2E41"/>
<path d="M378.051 245.862C378.49 245.74 378.937 245.652 379.388 245.597C378.87 245.683 378.424 245.771 378.051 245.862Z" fill="#2F2E41"/>
<path d="M377.66 245.963C377.779 245.93 377.911 245.896 378.051 245.862C377.921 245.897 377.795 245.922 377.66 245.963Z" fill="#2F2E41"/>
<path d="M502.465 398.998H439.236C438.334 398.262 437.707 397.232 437.46 396.08C437.214 394.928 437.363 393.725 437.882 392.672C439.609 388.625 436.225 384.927 436.225 384.927C435.076 383.552 434.277 381.908 433.899 380.142C433.521 378.375 433.575 376.541 434.058 374.801C435.733 368.824 429.168 351.953 429.168 351.953C429.168 351.953 425.629 373.738 421.292 398.998H361.159C360.151 397.245 359.62 395.249 359.62 393.216C359.62 391.184 360.151 389.188 361.159 387.435C364.663 381.365 361.159 380.2 361.159 380.2C361.159 380.2 357.654 373.408 361.159 368.476C364.663 363.543 361.159 343.405 361.159 343.405C361.291 344.295 362.289 342.676 363.826 339.282C366.166 334.118 369.742 324.831 373.355 314.049C375.938 306.354 378.543 297.887 380.719 289.609H380.724C381.295 287.434 381.835 285.279 382.346 283.144C383.344 278.957 384.2 274.888 384.85 271.067C386.26 262.838 386.725 255.769 385.642 251.171C384.744 247.345 382.779 245.235 379.388 245.597C381.205 245.289 383.867 244.998 387.147 244.722C387.739 244.674 388.352 244.625 388.986 244.571C413.453 242.683 465.948 241.598 465.948 241.598L482.028 271.013L502.391 308.275C502.391 308.275 501.836 358.261 502.465 398.998Z" fill="#2F2E41"/>
<path d="M434.977 114.46L397.932 106.432L390.576 121.557L365.807 136.207C365.807 136.207 381.773 202.899 381.682 212.279C381.451 236.093 344.152 289.477 372.325 285.37C400.498 281.264 406.221 264.061 415.265 266.781C423.422 269.234 433.381 280.147 440.049 272.342C446.717 264.538 449.065 273.55 453.281 273.862C455.285 274.01 454.078 264.006 459.12 274.173C464.161 284.339 490.894 270.654 481.833 261.398C466.743 245.982 463.677 132.342 463.677 132.342L446.878 127.061L434.977 114.46Z" fill="#E6E6E6"/>
<path d="M365.106 356.657C366.595 354.844 367.332 352.509 367.161 350.149C366.99 347.789 365.924 345.591 364.19 344.021C363.833 343.708 363.451 343.425 363.048 343.176L369.242 312.122L354.923 303.367L350.94 346.845C350.059 348.632 349.782 350.666 350.152 352.631C350.521 354.596 351.517 356.38 352.984 357.706C353.826 358.452 354.803 359.021 355.861 359.382C356.918 359.742 358.034 359.886 359.146 359.805C360.257 359.725 361.343 359.422 362.34 358.913C363.337 358.404 364.226 357.699 364.956 356.839C365.007 356.779 365.057 356.719 365.106 356.657Z" fill="#A0616A"/>
<path d="M409.565 192.966C409.476 191.968 408.229 191.515 406.502 190.889C404.767 190.343 403.118 189.545 401.605 188.52C397.781 185.697 399.286 182.746 401.367 178.666C401.774 177.873 402.197 177.047 402.593 176.189C403.771 173.647 401.896 163.162 397.009 145.02C395.504 139.435 395.509 135.49 394.469 132.873C393.433 130.256 391.357 128.966 385.7 128.696C378.862 128.343 372.166 130.775 367.08 135.458C366.943 135.582 366.8 135.717 366.663 135.846C366.404 136.094 366.15 136.348 365.902 136.607C361.199 141.441 358.507 147.946 358.391 154.76L358.364 155.921L357.197 211.351L353.917 259.994L349.395 327L352.744 327.167L366.108 327.847L367.73 327.928L371.575 311.448L376.203 291.616L377.903 284.331L383.18 261.731L385.642 251.171L387.147 244.722L387.76 242.089L390.75 229.289C390.819 229.019 397.696 201.298 405.625 196.663C408.583 194.936 409.65 193.932 409.565 192.966Z" fill="#E6E6E6"/>
<path d="M498.525 356.327C496.855 354.688 495.876 352.447 495.798 350.082C495.72 347.717 496.549 345.414 498.107 343.663C498.429 343.313 498.78 342.99 499.154 342.698L489.731 312.503L503.047 302.227L511.577 345.017C512.641 346.697 513.131 348.689 512.97 350.683C512.809 352.677 512.006 354.561 510.687 356.039C509.929 356.874 509.017 357.547 508.004 358.021C506.99 358.495 505.896 358.761 504.782 358.803C503.668 358.845 502.557 358.662 501.513 358.266C500.468 357.869 499.51 357.266 498.694 356.492C498.637 356.438 498.581 356.383 498.525 356.327Z" fill="#A0616A"/>
<path d="M505.039 290.806C505.039 290.806 494.654 253.478 497.821 249.437C500.988 245.396 491.634 244.607 495.665 237.081C499.696 229.555 494.132 228.297 494.132 228.297L491.113 210.993L485.716 168.491L485.552 167.227L483.982 154.862C483.544 151.33 482.413 147.925 480.657 144.85C478.9 141.775 476.555 139.093 473.762 136.965C473.619 136.853 473.473 136.746 473.327 136.639C472.663 136.15 471.984 135.697 471.291 135.281C466.11 132.158 460.025 130.978 454.085 131.942C442.891 133.723 446.375 137.987 444.559 149.412C441.609 167.988 440.843 178.616 442.282 181.017C442.766 181.825 443.276 182.599 443.761 183.342C446.26 187.175 448.067 189.94 444.56 193.172C443.162 194.353 441.607 195.325 439.941 196.059C438.293 196.874 437.099 197.459 437.115 198.462C437.134 199.433 438.299 200.31 441.42 201.701C445.201 203.391 449.262 209.783 452.589 216.312C455.228 221.575 457.582 226.982 459.64 232.509L488.231 314.657L492.895 328.054L494.503 327.794L507.714 325.654L511.027 325.119L505.039 290.806Z" fill="#E6E6E6"/>
<path d="M419.347 105.864C436.039 105.864 449.57 92.041 449.57 74.9889C449.57 57.9369 436.039 44.1134 419.347 44.1134C402.656 44.1134 389.124 57.9369 389.124 74.9889C389.124 92.041 402.656 105.864 419.347 105.864Z" fill="#A0616A"/>
<path d="M374.017 57.9494C369.416 40.8128 406.525 26.1177 416.269 39.9179C417.624 37.9559 422.632 36.7642 424.93 37.3661C427.227 37.9679 429.159 39.4726 431.045 40.9291C433.637 42.9633 436.323 45.0698 437.914 47.9948C439.516 50.9077 439.764 54.88 437.608 57.4077C435.899 59.4179 430.856 60.7179 428.288 61.2475C426.497 61.6207 424.988 61.9216 423.692 62.1383C422.515 60.4055 421.973 58.3045 422.161 56.204C421.288 56.8052 420.557 57.5962 420.019 58.5202C419.481 59.4442 419.15 60.4784 419.05 61.5485C419.015 61.9938 433.531 116.558 433.531 116.558C431.787 117.572 429.952 118.414 428.052 119.073C424.293 113.204 421.413 106.794 419.509 100.055C419.072 104.561 419.127 109.103 419.674 113.597C419.966 116.116 420.382 118.619 420.923 121.096C403.674 124.899 377.728 123.647 366.44 107.47C366.438 107.403 366.437 107.336 366.435 107.269C366.426 106.63 366.2 106.015 365.796 105.527C365.392 105.04 364.834 104.712 364.219 104.598C363.604 104.485 362.969 104.594 362.424 104.906C361.878 105.218 361.456 105.714 361.229 106.309C360.955 107.023 360.703 107.64 360.479 108.132C357.191 96.1187 361.445 82.216 374.017 57.9494Z" fill="#2F2E41"/>
<path d="M224.129 164.638C223.491 164.668 222.859 164.496 222.319 164.147C221.779 163.798 221.357 163.288 221.111 162.686C220.864 162.084 220.805 161.418 220.941 160.781C221.077 160.143 221.401 159.563 221.871 159.12C221.949 158.801 222.005 158.572 222.084 158.253C222.056 158.183 222.028 158.114 221.999 158.045C219.13 151.056 209.408 151.105 206.563 158.103C204.039 164.315 200.824 170.537 200.033 177.105C199.684 180.009 199.831 182.951 200.467 185.803C194.538 172.589 191.459 158.227 191.439 143.691C191.438 140.043 191.636 136.398 192.033 132.773C192.361 129.801 192.817 126.85 193.399 123.921C196.577 108.026 203.401 93.1271 213.31 80.449C218.105 77.7758 221.984 73.665 224.422 68.6705C225.306 66.8752 225.93 64.9587 226.276 62.9806C225.735 63.0531 224.236 54.6359 224.644 54.1195C223.89 52.9507 222.541 52.3697 221.717 51.2292C217.622 45.5572 211.98 46.5476 209.035 54.2554C202.743 57.4996 202.682 62.8798 206.543 68.0544C208.999 71.3465 209.336 75.801 211.491 79.3255C211.27 79.6154 211.039 79.8963 210.817 80.1863C206.764 85.5106 203.232 91.2279 200.27 97.2562C201.108 90.5702 199.871 82.5154 197.762 77.3232C195.362 71.4072 190.862 66.4247 186.9 61.3104C182.141 55.1673 172.382 57.8482 171.543 65.6356C171.535 65.711 171.527 65.7864 171.519 65.8618C172.108 66.2009 172.684 66.5609 173.248 66.9418C173.956 67.4251 174.504 68.1157 174.822 68.923C175.139 69.7304 175.21 70.6168 175.026 71.4662C174.842 72.3156 174.411 73.0884 173.789 73.6832C173.168 74.2781 172.385 74.6673 171.543 74.7998L171.457 74.8134C171.667 76.9803 172.037 79.1278 172.566 81.2373C167.483 101.319 178.457 108.634 194.126 108.962C194.472 109.143 194.809 109.324 195.155 109.497C192.18 118.111 190.313 127.083 189.603 136.189C189.201 141.561 189.225 146.957 189.674 152.325L189.647 152.135C188.512 146.166 185.395 140.78 180.823 136.886C174.032 131.187 164.437 129.089 157.111 124.508C153.584 122.303 149.065 125.152 149.681 129.329C149.69 129.396 149.7 129.463 149.711 129.529C150.803 129.984 151.866 130.507 152.895 131.097C153.483 131.436 154.059 131.796 154.623 132.177C155.331 132.66 155.88 133.351 156.197 134.158C156.514 134.965 156.586 135.852 156.401 136.701C156.217 137.551 155.786 138.323 155.165 138.918C154.543 139.513 153.76 139.902 152.919 140.035L152.832 140.048C152.77 140.057 152.717 140.066 152.655 140.076C154.521 144.627 157.14 148.817 160.398 152.461C163.576 169.992 177.227 171.655 191.829 166.55H191.838C193.44 173.662 195.761 180.586 198.765 187.208H223.509C223.598 186.927 223.677 186.637 223.757 186.356C221.467 186.503 219.167 186.363 216.91 185.939C218.746 183.638 220.582 181.318 222.418 179.017C222.459 178.974 222.497 178.929 222.533 178.881C223.465 177.703 224.405 176.535 225.336 175.357L225.336 175.355C225.386 171.745 224.98 168.143 224.13 164.638L224.129 164.638Z" fill="#F2F2F2"/>
<path d="M108.67 37.5112C108.109 38.8482 90.7924 38.7049 89.9993 39.8954C83.8845 49.0868 105.927 88.1939 99.8123 97.3972L98.9605 98.4344C100.955 97.4952 102.872 96.3907 104.69 95.1321C104.854 91.365 105.017 87.5859 105.192 83.8188C107.023 86.2124 108.502 88.8672 109.58 91.6988C111.003 90.6735 112.171 88.773 118.273 85.0348C120.744 82.2624 123.592 79.8674 126.73 77.9234L108.67 37.5112Z" fill="#2F2E41"/>
<path d="M121.245 112.84C119.334 111.568 117.154 110.78 114.885 110.542C112.616 110.303 110.325 110.621 108.2 111.468C106.076 112.315 104.18 113.668 102.67 115.414C101.16 117.16 100.079 119.248 99.5169 121.506L73.2021 191.552L27.9701 165.318C27.7715 162.303 26.6433 159.429 24.7471 157.109C22.851 154.79 20.2844 153.143 17.4155 152.405C14.5466 151.668 11.5228 151.877 8.77767 153.004C6.03258 154.131 3.70728 156.117 2.13527 158.677C0.56326 161.237 -0.174698 164.24 0.0272403 167.255C0.229178 170.27 1.36064 173.143 3.25934 175.46C5.15804 177.778 7.72643 179.422 10.5961 180.156C13.4659 180.89 16.4895 180.677 19.2333 179.547C28.7588 189.933 70.0552 232.515 87.1516 215.877C101.522 201.893 122.26 147.692 127.252 128.975C128.052 125.982 127.901 122.808 126.821 119.908C125.742 117.008 123.789 114.533 121.245 112.84Z" fill="#FFB6B6"/>
<path d="M71.8329 218.813L80.137 257.156L140.86 262.767L146.44 229.38L71.8329 218.813Z" fill="#FFB6B6"/>
<path d="M164.588 317.14C164.56 317.69 164.527 318.234 164.488 318.784C163.905 326.729 163.24 335.892 162.519 345.934C161.381 361.869 160.111 380.014 158.83 398.998H31.4638L56.1651 323.15C56.1651 323.15 66.1389 317.54 61.0611 308.116C55.9833 298.692 65.9746 306.202 66.0675 292.743C66.1605 279.284 75.1136 264.966 75.1136 264.966L76.5836 244.588L77.4212 244.605L143.703 245.733L144.912 245.756L146.948 263.249C159.309 278.275 165.615 297.541 164.588 317.14Z" fill="#2F2E41"/>
<path d="M109.732 94.2571L139.956 92.6665L153.995 115.328C153.995 115.328 180.409 119.839 178.578 151.637C176.747 183.434 146.44 211.336 146.44 211.336L147.736 206.799L145.486 213.367L145.774 217.054L148.844 220.96L149.16 224.999L146.44 231.39C146.794 231.969 146.981 232.637 146.982 233.32C146.982 234.002 146.795 234.671 146.442 235.251C146.09 235.831 145.585 236.297 144.985 236.599C144.386 236.9 143.716 237.024 143.051 236.956L99.3788 232.485C98.3845 229.69 97.5867 226.347 93.6012 231.913L89.4872 231.505L72.3854 229.813L71.3788 226.067C70.8068 223.938 70.7177 221.704 71.1182 219.535C71.5186 217.366 72.3981 215.319 73.6898 213.55C72.2043 208.798 72.5934 203.641 74.7742 199.178L74.856 199.011L76.6721 197.464C76.6721 197.464 56.803 166.969 79.6121 144.001L88.7666 128.102L99.0097 115.335L109.732 94.2571Z" fill="#E2E2E2"/>
<path d="M117.254 80.88C133.083 80.88 145.915 67.771 145.915 51.6001C145.915 35.4292 133.083 22.3201 117.254 22.3201C101.425 22.3201 88.593 35.4292 88.593 51.6001C88.593 67.771 101.425 80.88 117.254 80.88Z" fill="#FFB6B6"/>
<path d="M139.022 93.78C136.689 91.7877 135.064 89.0636 134.401 86.0311C133.871 89.7131 134.01 93.4633 134.81 97.0941C133.258 98.2862 131.752 99.4188 130.329 100.444C129.251 97.6124 127.773 94.9575 125.941 92.564C125.766 96.3311 125.603 100.11 125.439 103.877C123.621 105.136 121.704 106.24 119.71 107.18L120.561 106.142C126.676 96.9391 110.852 79.9989 116.967 70.8075C118.683 68.2324 110.934 47.8827 105.029 46.9648C99.7782 46.1541 99.9999 47.7039 94.9121 48.8364C94.3837 46.5853 93.5635 44.4163 92.4732 42.3869C92.7634 44.6483 92.6964 46.9425 92.2748 49.1821C90.4661 49.2537 89.043 48.0763 87.1169 47.7754C74.829 45.8561 76.0776 32.2777 79.4968 27.9741C82.9276 23.6824 94.3169 22.3949 99.5682 21C100.047 20.5232 101.132 20.8212 101.61 20.3682C111.674 10.9593 125.134 9.40107 137.246 13.5713C150.163 18.0186 158.216 26.626 162.35 39.8954L163.535 50.5143C164.599 53.9287 163.261 69.8152 162.35 73.2752C158.808 86.7249 151.265 80.0108 139.022 93.78Z" fill="#2F2E41"/>
<path d="M180.813 232.501L179.685 142.725C179.626 138.921 178.106 135.294 175.452 132.626C172.798 129.957 169.224 128.462 165.501 128.462C163.575 128.462 161.668 128.862 159.899 129.639C158.129 130.417 156.533 131.554 155.207 132.982C153.882 134.409 152.855 136.098 152.189 137.945C151.524 139.791 151.233 141.757 151.335 143.722L155.306 236.941L155.381 293.688C153.041 294.702 151.063 296.427 149.716 298.629C148.369 300.832 147.718 303.404 147.852 305.997C147.986 308.59 148.898 311.079 150.465 313.124C152.031 315.169 154.176 316.672 156.607 317.428C159.039 318.185 161.64 318.158 164.056 317.352C166.473 316.546 168.587 315 170.114 312.923C171.64 310.847 172.503 308.34 172.586 305.745C172.67 303.15 171.969 300.591 170.579 298.417L180.813 232.501Z" fill="#FFB6B6"/>
<path d="M328.736 348.65C328.736 348.65 326.992 380.714 326.19 399H266.111C264.875 382.358 264.458 370.132 264.458 370.132L261.171 399H200.443L196.679 345.535L214.872 299.463C214.872 299.463 313.469 292.478 322.615 301.339C331.754 310.195 328.736 348.65 328.736 348.65Z" fill="#2F2E41"/>
<path d="M275.61 78.9276C293.734 78.9276 308.426 63.9178 308.426 45.4024C308.426 26.887 293.734 11.8773 275.61 11.8773C257.485 11.8773 242.793 26.887 242.793 45.4024C242.793 63.9178 257.485 78.9276 275.61 78.9276Z" fill="#FFB6B6"/>
<path d="M313.861 34.5089C310.49 36.079 308.306 47.4509 305.657 44.8072C303.007 42.1635 303.184 38.723 299.612 37.7474C296.728 36.9561 293.624 37.8604 290.993 39.2867C290.523 39.5383 290.067 39.812 289.623 40.0841C289.33 39.8841 289.039 39.6959 288.726 39.5223C286.372 38.2356 283.626 37.92 281.051 38.6404C283.085 39.3364 284.854 40.6682 286.107 42.4472C285.226 43.0501 284.334 43.6545 283.422 44.19C275.8 48.6833 264.955 38.9128 256.933 35.2423C261.958 44.8758 259.483 48.8655 255.12 58.8285L254.969 59.3959C255.217 56.8988 247.654 55.0379 248.092 58.553C248.404 61.0487 250.518 66.596 251.702 68.7995C243.267 58.836 237.503 46.6434 238.72 34.0657C238.984 31.4235 238.904 28.6357 240.238 26.3425C241.574 24.061 244.358 22.4601 246.821 23.33C246.612 19.3189 247.472 15.3249 249.307 11.7728C251.143 8.2206 253.887 5.24302 257.247 3.15659C260.607 1.07015 264.457 -0.0471535 268.389 -0.0765529C272.321 -0.105952 276.187 0.953661 279.576 2.98963C282.726 4.87759 285.355 7.54777 288.242 9.85101C291.128 12.1542 294.456 14.1619 298.116 14.352C300.438 14.4664 302.965 13.8873 304.96 15.1159C307.271 16.5415 307.667 19.5264 308.014 22.3985C305.952 22.6061 303.999 23.4367 302.402 24.7843C304.535 24.5621 306.681 25.0325 308.537 26.1287C308.572 26.145 308.606 26.1646 308.638 26.1871C309.86 30.9338 309.734 31.986 313.861 34.5089Z" fill="#2F2E41"/>
<path d="M200.589 315.683C228.535 282.265 219.096 239.76 208.004 196.854L210.115 133.469C210.218 130.36 211.053 127.321 212.547 124.611C214.042 121.9 216.153 119.597 218.703 117.896L247.232 98.8549L258.337 82.4536L288.945 85.5805L305.919 103.918L324.706 118.571C329.424 122.25 333.013 127.23 335.051 132.924C337.09 138.619 337.492 144.79 336.21 150.71L318.231 233.774C318.231 233.774 325.751 276.835 321.163 281.591C316.574 286.347 304.751 281.593 314.127 286.932C325.378 293.339 335.609 292.157 329.915 297.973C324.221 303.79 331.427 311.877 331.427 311.877L200.589 315.683Z" fill="#E2E2E2"/>
<path d="M212.537 364.25L217.196 330.341L198.606 324.92L194.929 360.949C193.391 362.39 192.276 364.241 191.711 366.294C191.146 368.347 191.152 370.52 191.73 372.569C192.307 374.618 193.433 376.462 194.98 377.894C196.527 379.325 198.434 380.287 200.487 380.672C202.54 381.057 204.658 380.849 206.601 380.072C208.545 379.295 210.238 377.979 211.49 376.273C212.742 374.567 213.503 372.538 213.688 370.414C213.873 368.29 213.475 366.155 212.537 364.25Z" fill="#FFB6B6"/>
<path d="M247.93 104.968C247.93 104.968 195.014 122.561 193.753 135.435C192.491 148.308 192.909 156.189 187.325 207.702L187.619 346.465C187.619 346.465 223.095 354.225 219.457 345.928C215.819 337.632 217.088 333.729 217.088 333.729C217.088 333.729 224.694 330.662 222.79 320.921C220.886 311.18 230.435 262.905 230.435 262.905L236.461 176.327L247.93 104.968Z" fill="#E2E2E2"/>
<path d="M313.175 362.454L310.696 328.307L329.593 324.138L330.957 360.336C332.4 361.877 333.394 363.799 333.826 365.885C334.259 367.971 334.113 370.139 333.406 372.145C332.699 374.151 331.458 375.916 329.822 377.241C328.187 378.566 326.222 379.399 324.149 379.646C322.076 379.893 319.976 379.544 318.086 378.639C316.196 377.734 314.591 376.308 313.451 374.522C312.311 372.735 311.681 370.66 311.632 368.528C311.584 366.396 312.118 364.293 313.175 362.454Z" fill="#FFB6B6"/>
<path d="M294.448 101.363C294.448 101.363 346.125 122.453 346.56 135.383C346.996 148.313 346.074 156.149 348.351 207.925L339.178 346.371C339.178 346.371 303.281 351.745 307.443 343.71C311.604 335.674 310.587 331.694 310.587 331.694C310.587 331.694 303.193 328.126 305.716 318.533C308.24 308.94 301.801 260.131 301.801 260.131L301.327 173.336L294.448 101.363Z" fill="#E2E2E2"/>
</g>
<defs>
<clipPath id="clip0_12_727">
<rect width="513" height="399" fill="white"/>
</clipPath>
</defs>
</svg>
