<svg width="164" height="188" viewBox="0 0 164 188" fill="none" xmlns="http://www.w3.org/2000/svg">
<path d="M126.989 0.828125H37.0162C17.2295 0.828125 0.989502 17.0681 0.989502 36.8548V168.362C0.989502 185.162 13.0295 192.255 27.7762 184.135L73.3227 158.842C78.1761 156.135 86.0161 156.135 90.7761 158.842L136.323 184.135C151.069 192.348 163.109 185.255 163.109 168.362V36.8548C163.016 17.0681 146.869 0.828125 126.989 0.828125ZM115.789 67.2815L78.4561 104.615C77.0561 106.015 75.2827 106.668 73.5094 106.668C71.7361 106.668 69.9627 106.015 68.5627 104.615L54.5628 90.6152C51.8562 87.9085 51.8562 83.4285 54.5628 80.7218C57.2695 78.0152 61.7495 78.0152 64.4561 80.7218L73.5094 89.7752L105.896 57.3881C108.603 54.6815 113.083 54.6815 115.789 57.3881C118.496 60.0948 118.496 64.5748 115.789 67.2815Z" fill="#1867FF"/>
</svg>
