<svg width="10" height="10" viewBox="0 0 10 10" fill="none" xmlns="http://www.w3.org/2000/svg">
<path d="M4.99584 0.833313C2.69584 0.833313 0.833344 2.69998 0.833344 4.99998C0.833344 7.29998 2.69584 9.16665 4.99584 9.16665C7.30001 9.16665 9.16668 7.29998 9.16668 4.99998C9.16668 2.69998 7.30001 0.833313 4.99584 0.833313ZM5.00001 8.33331C3.15834 8.33331 1.66668 6.84165 1.66668 4.99998C1.66668 3.15831 3.15834 1.66665 5.00001 1.66665C6.84168 1.66665 8.33334 3.15831 8.33334 4.99998C8.33334 6.84165 6.84168 8.33331 5.00001 8.33331ZM4.90834 2.91665H4.88334C4.71668 2.91665 4.58334 3.04998 4.58334 3.21665V5.18331C4.58334 5.32915 4.65834 5.46665 4.78751 5.54165L6.51668 6.57915C6.65834 6.66248 6.84168 6.62081 6.92501 6.47915C6.94593 6.44541 6.95985 6.4078 6.96594 6.36857C6.97202 6.32934 6.97015 6.28929 6.96043 6.2508C6.95071 6.21231 6.93334 6.17617 6.90936 6.14453C6.88538 6.11289 6.85528 6.08641 6.82084 6.06665L5.20834 5.10831V3.21665C5.20834 3.04998 5.07501 2.91665 4.90834 2.91665Z" fill="white"/>
</svg>
